<?xml version="1.0" encoding="utf-8"?>
<!-- Generator: Adobe Illustrator 24.1.0, SVG Export Plug-In . SVG Version: 6.00 Build 0)  -->
<svg version="1.1" id="Calque_2_1_" xmlns="http://www.w3.org/2000/svg" xmlns:xlink="http://www.w3.org/1999/xlink" x="0px"
	 y="0px" viewBox="0 0 138.9 43.7" style="enable-background:new 0 0 138.9 43.7;" xml:space="preserve">
<style type="text/css">
	.st0{fill:#F3E600;}
	.st1{fill:#1D1D1B;}
	.st2{font-family:'Merriweather-Light';}
	.st3{font-size:23.5px;}
</style>
<g id="Logo_A1">
	<rect class="st0" width="138.9" height="43.7"/>
	<path class="st1" d="M11.3,13.4c0.5,0,1,0.2,1.4,0.5c0.4,0.4,0.5,0.8,0.5,1.3c0,0.5-0.2,1-0.5,1.4c-0.8,0.7-2,0.7-2.8,0
		c-0.4-0.4-0.6-0.9-0.5-1.4c0-0.5,0.2-1,0.5-1.3C10.3,13.5,10.8,13.4,11.3,13.4z M11.3,23c0.5,0,1,0.2,1.4,0.5
		c0.4,0.4,0.5,0.8,0.5,1.3c0,0.5-0.2,1-0.5,1.4c-0.8,0.7-2,0.7-2.8,0c-0.4-0.4-0.6-0.9-0.5-1.4c0-0.5,0.2-1,0.5-1.3
		C10.3,23.2,10.8,23,11.3,23z"/>
	<path class="st1" d="M18.9,23c0.6,0,1.2,0.3,1.6,0.8c0.4,0.6,0.6,1.2,0.6,1.9c0,1-0.3,1.9-0.8,2.7c-0.5,0.8-1.3,1.5-2.2,1.9
		l-1.3-1.1c0.7-0.2,1.2-0.6,1.7-1.1c0.4-0.4,0.8-1,0.9-1.5l-0.1-0.1c-0.1,0.1-0.2,0.1-0.3,0.1c-0.2,0-0.3,0.1-0.5,0.1
		c-0.4,0-0.8-0.2-1.1-0.4c-0.4-0.3-0.6-0.8-0.5-1.3c0-0.5,0.2-1,0.6-1.4C17.9,23.2,18.4,23,18.9,23z M18.9,13.4c0.5,0,1,0.2,1.4,0.5
		c0.4,0.4,0.5,0.8,0.5,1.4c0,0.5-0.2,1-0.5,1.4c-0.8,0.7-2,0.7-2.8,0c-0.4-0.4-0.6-0.9-0.5-1.4c0-0.5,0.2-1,0.5-1.4
		C17.9,13.6,18.4,13.4,18.9,13.4L18.9,13.4z"/>
	<text transform="matrix(1 0 0 1 35.3 27.42)" class="st1 st2 st3">JoliTypo</text>
</g>
</svg>
